<?xml version="1.0" encoding="UTF-8" standalone="no"?>
<!-- Created with Inkscape (http://www.inkscape.org/) -->

<svg
   xmlns:dc="http://purl.org/dc/elements/1.1/"
   xmlns:cc="http://creativecommons.org/ns#"
   xmlns:rdf="http://www.w3.org/1999/02/22-rdf-syntax-ns#"
   xmlns:svg="http://www.w3.org/2000/svg"
   xmlns="http://www.w3.org/2000/svg"
   xmlns:sodipodi="http://sodipodi.sourceforge.net/DTD/sodipodi-0.dtd"
   xmlns:inkscape="http://www.inkscape.org/namespaces/inkscape"
   width="64"
   height="64"
   id="svg4152"
   version="1.1"
   inkscape:version="0.91 r13725"
   viewBox="0 0 64 64"
   sodipodi:docname="draft_jizdoteka_4.svg">
  <defs
     id="defs4154" />
  <sodipodi:namedview
     id="base"
     pagecolor="#ffffff"
     bordercolor="#666666"
     borderopacity="1.0"
     inkscape:pageopacity="0.0"
     inkscape:pageshadow="2"
     inkscape:zoom="11"
     inkscape:cx="18.48332"
     inkscape:cy="43.588008"
     inkscape:current-layer="layer1"
     showgrid="true"
     inkscape:document-units="px"
     inkscape:grid-bbox="true"
     inkscape:window-width="1680"
     inkscape:window-height="974"
     inkscape:window-x="0"
     inkscape:window-y="24"
     inkscape:window-maximized="1" />
  <metadata
     id="metadata4157">
    <rdf:RDF>
      <cc:Work
         rdf:about="">
        <dc:format>image/svg+xml</dc:format>
        <dc:type
           rdf:resource="http://purl.org/dc/dcmitype/StillImage" />
        <dc:title></dc:title>
      </cc:Work>
    </rdf:RDF>
  </metadata>
  <g
     id="layer1"
     inkscape:label="Layer 1"
     inkscape:groupmode="layer">
    <rect
       style="opacity:1;fill:#55d400;fill-opacity:1;fill-rule:evenodd;stroke:none;stroke-width:1.39999998;stroke-linecap:round;stroke-linejoin:round;stroke-miterlimit:4;stroke-dasharray:none"
       id="rect4888"
       width="64"
       height="64"
       x="0"
       y="0" />
    <path
       style="opacity:1;fill:#ffffff;fill-opacity:1;fill-rule:evenodd;stroke:#000000;stroke-width:0.80000001;stroke-linecap:round;stroke-linejoin:bevel;stroke-miterlimit:4;stroke-dasharray:none"
       d="m 1.6464844,1.6464844 0,6.7070312 6.7070312,0 0,-6.7070312 z m 0,8.9999996 0,6.707032 6.7070312,0 0,-6.707032 z m 0,9 0,6.707032 6.7070312,0 0,-6.707032 z m 0,27 0,6.707032 6.7070312,0 0,-6.707032 z m 0,9 0,6.707032 6.7070312,0 0,-6.707032 z"
       id="rect4700"
       inkscape:connector-curvature="0"
       sodipodi:nodetypes="ccccccccccccccccccccccccc" />
    <path
       style="opacity:1;fill:#ffffff;fill-opacity:1;fill-rule:evenodd;stroke:#000000;stroke-width:0.80000001;stroke-linecap:round;stroke-linejoin:bevel;stroke-miterlimit:4;stroke-dasharray:none"
       d="m 55.646484,1.6464844 0,6.7070312 6.707032,0 0,-6.7070312 z m 0,8.9999996 0,6.707032 6.707032,0 0,-6.707032 z m 0,9 0,6.707032 6.707032,0 0,-6.707032 z m 0,27 0,6.707032 6.707032,0 0,-6.707032 z m 0,9 0,6.707032 6.707032,0 0,-6.707032 z"
       id="rect4736"
       inkscape:connector-curvature="0"
       sodipodi:nodetypes="ccccccccccccccccccccccccc" />
    <path
       id="circle4835"
       style="opacity:1;fill:none;fill-opacity:1;fill-rule:evenodd;stroke:#000000;stroke-width:1.5;stroke-linecap:round;stroke-linejoin:round;stroke-miterlimit:4;stroke-dasharray:none"
       d="m 48.700697,46.915338 c -5.601931,0.105989 -5.394735,-8.674803 -0.09091,-8.674803 5.39568,0 4.892684,8.583953 0.09091,8.674803 z M 4.2594656,30.688703 l 0,11.180543 4.8052202,-0.104222 c 0.02887,-4.708201 5.0541032,-6.664252 7.2620972,-6.664252 2.817365,0.0018 7.170185,2.146377 7.198251,6.723019 l 18.362845,0.227273 c 0,-4.437633 4.002592,-6.723019 6.55385,-6.723019 3.560591,0 6.867227,2.509976 6.867227,6.541201 l 5.1015,0 0,-11.180543 L 51.506574,27.171941 46.271998,15.856872 24.604125,15.72942 19.00445,27.731631 Z M 16.023283,46.899741 c -5.943315,0 -5.137509,-8.568297 0.25713,-8.568297 5.78198,0 5.907961,8.300541 -0.25713,8.568297 z"
       inkscape:connector-curvature="0"
       sodipodi:nodetypes="ssscccccccccccccccccc" />
  </g>
</svg>
