<?xml version="1.0" encoding="UTF-8" standalone="no"?>
<!-- Created with Inkscape (http://www.inkscape.org/) -->

<svg
   xmlns:dc="http://purl.org/dc/elements/1.1/"
   xmlns:cc="http://creativecommons.org/ns#"
   xmlns:rdf="http://www.w3.org/1999/02/22-rdf-syntax-ns#"
   xmlns:svg="http://www.w3.org/2000/svg"
   xmlns="http://www.w3.org/2000/svg"
   xmlns:sodipodi="http://sodipodi.sourceforge.net/DTD/sodipodi-0.dtd"
   xmlns:inkscape="http://www.inkscape.org/namespaces/inkscape"
   width="64"
   height="64"
   id="svg4152"
   version="1.1"
   inkscape:version="0.91 r13725"
   viewBox="0 0 64 64"
   sodipodi:docname="draft_jizdoteka_2.svg">
  <defs
     id="defs4154" />
  <sodipodi:namedview
     id="base"
     pagecolor="#ffffff"
     bordercolor="#666666"
     borderopacity="1.0"
     inkscape:pageopacity="0.0"
     inkscape:pageshadow="2"
     inkscape:zoom="0.34375"
     inkscape:cx="-1037.713"
     inkscape:cy="199.76542"
     inkscape:current-layer="layer1"
     showgrid="true"
     inkscape:document-units="px"
     inkscape:grid-bbox="true"
     inkscape:window-width="1680"
     inkscape:window-height="974"
     inkscape:window-x="0"
     inkscape:window-y="24"
     inkscape:window-maximized="1" />
  <metadata
     id="metadata4157">
    <rdf:RDF>
      <cc:Work
         rdf:about="">
        <dc:format>image/svg+xml</dc:format>
        <dc:type
           rdf:resource="http://purl.org/dc/dcmitype/StillImage" />
        <dc:title></dc:title>
      </cc:Work>
    </rdf:RDF>
  </metadata>
  <g
     id="layer1"
     inkscape:label="Layer 1"
     inkscape:groupmode="layer">
    <rect
       style="opacity:1;fill:#55d400;fill-opacity:1;fill-rule:evenodd;stroke:none;stroke-width:1.39999998;stroke-linecap:round;stroke-linejoin:round;stroke-miterlimit:4;stroke-dasharray:none"
       id="rect4888"
       width="64"
       height="64"
       x="0"
       y="0" />
    <path
       style="opacity:1;fill:#ffffff;fill-opacity:1;fill-rule:evenodd;stroke:#000000;stroke-width:0.8;stroke-linecap:round;stroke-linejoin:bevel;stroke-miterlimit:4;stroke-dasharray:none"
       d="m 1.6464844,1.6464844 0,6.7070312 6.7070312,0 0,-6.7070312 z m 0,8.9999996 0,6.707032 6.7070312,0 0,-6.707032 z m 0,9 0,6.707032 6.7070312,0 0,-6.707032 z m 0,9 0,4.441085 6.7070312,-0.941406 0,-3.499679 z m 0,18 0,6.707032 6.7070312,0 0,-6.707032 z m 0,9 0,6.707032 6.7070312,0 0,-6.707032 z"
       id="rect4700"
       inkscape:connector-curvature="0"
       sodipodi:nodetypes="cccccccccccccccccccccccccccccc" />
    <path
       style="opacity:1;fill:#ffffff;fill-opacity:1;fill-rule:evenodd;stroke:#000000;stroke-width:0.8;stroke-linecap:round;stroke-linejoin:bevel;stroke-miterlimit:4;stroke-dasharray:none"
       d="m 55.646484,1.6464844 0,6.7070312 6.707032,0 0,-6.7070312 z m 0,8.9999996 0,6.707032 6.707032,0 0,-6.707032 z m 0,9 0,6.707032 6.707032,0 0,-6.707032 z m 0,9 0,2.405246 6.707032,1.853516 0,-4.258762 z m 0,18 0,6.707032 6.707032,0 0,-6.707032 z m 0,9 0,6.707032 6.707032,0 0,-6.707032 z"
       id="rect4736"
       inkscape:connector-curvature="0"
       sodipodi:nodetypes="cccccccccccccccccccccccccccccc" />
    <path
       id="circle4835"
       style="opacity:1;fill:none;fill-opacity:1;fill-rule:evenodd;stroke:#000000;stroke-width:2;stroke-linecap:round;stroke-linejoin:round;stroke-miterlimit:4;stroke-dasharray:none"
       d="m 53.005153,43.908398 a 4.2409485,4.2409485 0 0 1 -4.240948,4.240949 4.2409485,4.2409485 0 0 1 -4.240949,-4.240949 4.2409485,4.2409485 0 0 1 4.240949,-4.240948 4.2409485,4.2409485 0 0 1 4.240948,4.240948 z m -48.9331328,-7.92807 0,7.876725 6.4097288,0 c 0.02826,-3.224982 2.650324,-5.824614 5.875431,-5.825164 3.22438,0.0015 5.845315,2.600907 5.873568,5.825164 l 20.65895,0 c 0.02826,-3.224982 2.650324,-5.824614 5.875431,-5.825164 3.22438,0.0015 5.845314,2.600907 5.873568,5.825164 l 5.959205,0 0,-7.876725 -8.96333,-2.477569 -5.269524,-7.971499 -21.812538,-0.08979 -5.63706,8.455592 z m 16.5251848,7.92807 a 4.2409485,4.2409485 0 0 1 -4.240948,4.240949 4.2409485,4.2409485 0 0 1 -4.240949,-4.240949 4.2409485,4.2409485 0 0 1 4.240949,-4.240948 4.2409485,4.2409485 0 0 1 4.240948,4.240948 z"
       inkscape:connector-curvature="0" />
  </g>
</svg>
